<svg id="Layer_1" data-name="Layer 1" xmlns="http://www.w3.org/2000/svg" xmlns:xlink="http://www.w3.org/1999/xlink" viewBox="0 0 72 35.62"><defs><style>.cls-1,.cls-2{fill-rule:evenodd;}.cls-1{fill:url(#linear-gradient);}.cls-2{fill:#fff;}</style><linearGradient id="linear-gradient" x1="36" x2="36" y2="35.62" gradientUnits="userSpaceOnUse"><stop offset="0" stop-color="#00b8f1"/><stop offset="0.02" stop-color="#01b6f0"/><stop offset="0.31" stop-color="#0d90d9"/><stop offset="0.58" stop-color="#1775c8"/><stop offset="0.82" stop-color="#1c65bf"/><stop offset="1" stop-color="#1e5fbb"/></linearGradient></defs><title>SAP_sign_R</title><polyline class="cls-1" points="0 35.62 36.39 35.62 72 0 0 0 0 35.62"/><path class="cls-2" d="M45.68,9.16H38.6V26L32.4,9.15H26.27L21,23.25c-.56-3.55-4.24-4.78-7.13-5.7C11.94,16.93,9.91,16,9.93,15c0-.82,1.09-1.58,3.21-1.46A11.59,11.59,0,0,1,18.33,15l2.46-4.29a19.17,19.17,0,0,0-8-1.9h0a9.75,9.75,0,0,0-7.09,2.59A6,6,0,0,0,4,15.5a5.55,5.55,0,0,0,2.43,4.95,16.56,16.56,0,0,0,4.82,2.2c2,.61,3.57,1.14,3.56,2.27A1.67,1.67,0,0,1,14.3,26a3.12,3.12,0,0,1-2.28.72,9.8,9.8,0,0,1-5.87-1.67L4,29.42a16.37,16.37,0,0,0,8,2.13h.37a9.68,9.68,0,0,0,6.1-2l.26-.22L18,31.18h6.44l1.08-3.29a11.75,11.75,0,0,0,3.78.6A11.9,11.9,0,0,0,33,27.93l1,3.25h10.5v-6.8h2.29c5.54,0,8.81-2.82,8.81-7.54C55.64,11.57,52.46,9.16,45.68,9.16ZM29.3,23.58a6.47,6.47,0,0,1-2.27-.4l2.25-7.09h0l2.21,7.11A6.66,6.66,0,0,1,29.3,23.58ZM46.1,19.5H44.54V13.79H46.1c2.08,0,3.74.69,3.74,2.82S48.18,19.5,46.1,19.5" transform="translate(-2.95 -2.46)"/></svg>